<svg width="100" height="100" viewBox="0 0 100 100" fill="none" xmlns="http://www.w3.org/2000/svg">
<path d="M13.7503 61.7719C12.246 62.0361 10.7152 62.1153 9.13174 62.3262L4.30186 48.1801V62.9334C2.79756 63.0917 1.4252 63.3028 0 63.5139V36.4883H4.01172L9.50117 51.8224V36.4883H13.7503V61.7719ZM22.0639 46.3854C23.7003 46.3854 26.2075 46.3062 27.7118 46.3062V50.5288C25.8379 50.5288 23.6475 50.5288 22.0639 50.608V56.8895C24.5448 56.7312 27.0257 56.5199 29.5328 56.4407V60.5048L17.841 61.4288V36.4883H29.5328V40.711H22.0639V46.3854ZM45.2361 40.7111H40.8551V60.1358C39.4299 60.1358 38.0047 60.1358 36.6325 60.1884V40.7111H32.2515V36.4883H45.2363L45.2361 40.7111V40.7111ZM52.098 46.0951H57.878V50.3178H52.098V59.8983H47.9542V36.4883H59.7519V40.711H52.098V46.0951ZM66.6138 56.2033C69.0155 56.2559 71.4435 56.441 73.7925 56.5727V60.7427C70.0185 60.505 66.2443 60.2678 62.3911 60.1884V36.4883H66.6138V56.2033ZM77.3554 61.0331C78.7014 61.1124 80.1266 61.1916 81.4989 61.3497V36.4883H77.3554V61.0331ZM100 36.4883L94.6423 49.3413L100 63.5139C98.4163 63.3028 96.8328 63.0125 95.2492 62.7485L92.2143 54.9366L89.1267 62.1153C87.5956 61.8511 86.1177 61.7719 84.5872 61.5608L90.0239 49.1828L85.1148 36.4883H89.6541L92.4253 43.5878L95.3813 36.4883H100Z" fill="#D81F26"/>
</svg>
