<svg width="40" height="40" viewBox="0 0 40 40" fill="none" xmlns="http://www.w3.org/2000/svg">
<path opacity="0.2" d="M20.3507 34.9964C23.0932 34.9327 25.7657 34.1183 28.0776 32.6417C30.3895 31.165 32.2522 29.0827 33.4632 26.6213L33.4629 26.6211L24.9807 21.4042C24.832 21.3127 24.6658 21.2534 24.4928 21.2301L20.9274 20.7495C20.6597 20.7134 20.3875 20.765 20.1515 20.8966C19.9156 21.0282 19.7287 21.2327 19.6187 21.4795L17.4782 26.2823C17.3787 26.5057 17.3469 26.7533 17.3867 26.9946C17.4265 27.2359 17.5362 27.4602 17.7022 27.6397L20.6396 30.817C20.7728 30.961 20.8702 31.1344 20.924 31.3231C20.9777 31.5117 20.9863 31.7104 20.9491 31.903L20.3507 34.9962L20.3507 34.9964Z" fill="#E34444"/>
<path opacity="0.2" d="M16.8165 6.36816C18.904 5.8801 21.0738 5.87713 23.1593 6.35742L24.4064 8.5918C24.4339 8.64114 24.4438 8.69815 24.4347 8.75391C24.4255 8.80972 24.3985 8.86147 24.3566 8.89941L20.1515 12.7021C20.1373 12.715 20.1214 12.7261 20.1046 12.7354L18.1915 13.791C18.1545 13.8114 18.1127 13.8223 18.0704 13.8223H14.7355C14.2928 13.8223 13.8601 13.9534 13.4913 14.1982C13.1225 14.4431 12.8341 14.7912 12.6622 15.1992L11.6827 17.5244L11.6456 17.5166C11.6047 17.5078 11.566 17.4883 11.5343 17.4609C11.5027 17.4336 11.4787 17.3985 11.464 17.3594L9.66809 12.5674C9.64582 12.5076 9.64722 12.4416 9.672 12.3828L10.9757 9.29688C12.6643 7.87539 14.6652 6.87118 16.8165 6.36816Z" fill="#E34444" stroke="#E34444" stroke-width="2"/>
<path d="M20 35C28.2843 35 35 28.2843 35 20C35 11.7157 28.2843 5 20 5C11.7157 5 5 11.7157 5 20C5 28.2843 11.7157 35 20 35Z" stroke="#E34444" stroke-width="2" stroke-linecap="round" stroke-linejoin="round"/>
<path d="M33.4629 26.6211L24.9807 21.4042C24.832 21.3127 24.6658 21.2534 24.4928 21.2301L20.9274 20.7495C20.6597 20.7134 20.3875 20.765 20.1515 20.8966C19.9156 21.0282 19.7287 21.2327 19.6187 21.4795L17.4782 26.2823C17.3787 26.5057 17.3469 26.7533 17.3867 26.9946C17.4265 27.2359 17.5362 27.4602 17.7022 27.6397L20.6396 30.817C20.7728 30.961 20.8702 31.1344 20.924 31.3231C20.9777 31.5117 20.9863 31.7104 20.9491 31.903L20.3507 34.9962" stroke="#E34444" stroke-width="2" stroke-linecap="round" stroke-linejoin="round"/>
<path d="M10.1487 8.6875L8.75118 11.9921C8.62657 12.2868 8.61968 12.618 8.73193 12.9176L10.5274 17.7095C10.6009 17.9057 10.7226 18.0803 10.8812 18.2172C11.0399 18.3542 11.2304 18.449 11.4352 18.493L14.7837 19.2127C14.9695 19.2526 15.1437 19.3344 15.2932 19.4518C15.4426 19.5692 15.5633 19.7191 15.6461 19.8902L16.2408 21.1186C16.3431 21.33 16.5029 21.5083 16.7019 21.6331C16.9009 21.7578 17.131 21.824 17.3659 21.824H19.4647" stroke="#E34444" stroke-width="2" stroke-linecap="round" stroke-linejoin="round"/>
<path d="M23.8213 5.49219L25.2797 8.10444C25.4176 8.35138 25.4676 8.63779 25.4217 8.91685C25.3757 9.19592 25.2365 9.45116 25.0267 9.64087L20.8219 13.4436C20.7505 13.5081 20.6719 13.5642 20.5877 13.6107L18.6749 14.667C18.4899 14.7692 18.282 14.8228 18.0707 14.8228H14.7354C14.4895 14.8228 14.249 14.8954 14.0441 15.0314C13.8392 15.1674 13.679 15.3609 13.5835 15.5876L12.2823 18.6764" stroke="#E34444" stroke-width="1.5" stroke-linecap="round" stroke-linejoin="round"/>
</svg>
