<svg width="46" height="46" viewBox="0 0 46 46" fill="none" xmlns="http://www.w3.org/2000/svg">
<rect width="46" height="46" transform="translate(-0.00350952)" fill="#363B47" fill-opacity="0.4"/>
<g clip-path="url(#clip0_6530_13116)">
<path d="M31.9965 17.7314C31.3271 18.025 30.6139 18.2196 29.8702 18.3141C30.6352 17.8574 31.2191 17.1396 31.4936 16.2745C30.7804 16.6997 29.9929 17.0001 29.1536 17.1678C28.4764 16.4466 27.5111 16 26.4581 16C24.4151 16 22.7704 17.6583 22.7704 19.6911C22.7704 19.9836 22.7951 20.2649 22.8559 20.5326C19.788 20.383 17.0734 18.9126 15.2497 16.6728C14.9314 17.2251 14.7446 17.8574 14.7446 18.538C14.7446 19.816 15.4027 20.9489 16.3837 21.6047C15.7909 21.5935 15.2092 21.4214 14.7165 21.1502C14.7165 21.1615 14.7165 21.1761 14.7165 21.1907C14.7165 22.984 15.9956 24.4735 17.673 24.8166C17.3726 24.8988 17.0452 24.9381 16.7055 24.9381C16.4692 24.9381 16.2307 24.9246 16.0069 24.8751C16.485 26.3365 17.8417 27.4109 19.455 27.4457C18.1995 28.4279 16.6054 29.0196 14.8796 29.0196C14.577 29.0196 14.2867 29.0061 13.9965 28.969C15.6311 30.0231 17.5684 30.625 19.6575 30.625C26.448 30.625 30.1605 25 30.1605 20.1242C30.1605 19.9611 30.1549 19.8036 30.147 19.6473C30.8794 19.1275 31.4947 18.4784 31.9965 17.7314Z" fill="white"/>
</g>
<defs>
<clipPath id="clip0_6530_13116">
<rect width="18" height="18" fill="white" transform="translate(13.9965 14)"/>
</clipPath>
</defs>
</svg>
