<svg width="46" height="46" viewBox="0 0 46 46" fill="none" xmlns="http://www.w3.org/2000/svg">
<rect width="46" height="46" transform="translate(-0.00354004)" fill="#363B47" fill-opacity="0.4"/>
<path fill-rule="evenodd" clip-rule="evenodd" d="M30.0392 17.3855C30.8101 17.5931 31.4181 18.2009 31.6256 18.972C32.0112 20.3805 31.9964 23.3163 31.9964 23.3163C31.9964 23.3163 31.9964 26.2371 31.6257 27.6457C31.4181 28.4167 30.8103 29.0246 30.0392 29.2321C28.6306 29.6029 22.9964 29.6029 22.9964 29.6029C22.9964 29.6029 17.3769 29.6029 15.9537 29.2174C15.1826 29.0098 14.5748 28.4018 14.3671 27.6309C13.9965 26.2371 13.9965 23.3015 13.9965 23.3015C13.9965 23.3015 13.9965 20.3805 14.3671 18.972C14.5746 18.2011 15.1974 17.5783 15.9535 17.3708C17.3621 17 22.9963 17 22.9963 17C22.9963 17 28.6306 17 30.0392 17.3855ZM25.8878 23.3015L21.2025 26.0001V20.603L25.8878 23.3015Z" fill="white"/>
</svg>
